<?xml version="1.0" standalone="no"?><!DOCTYPE svg PUBLIC "-//W3C//DTD SVG 1.1//EN" "http://www.w3.org/Graphics/SVG/1.1/DTD/svg11.dtd"><svg t="1630162258679" class="icon" viewBox="0 0 1024 1024" version="1.1" xmlns="http://www.w3.org/2000/svg" p-id="3898" xmlns:xlink="http://www.w3.org/1999/xlink" width="128" height="128"><defs><style type="text/css"></style></defs><path d="M511.744 85.333333c91.178667 0 185.301333 2.944 185.301333 2.944 133.290667 0 238.208 104.96 238.677334 238.336 0 0 2.944 92.202667 2.944 182.442667 0 92.202667-2.944 188.330667-2.944 188.330667 0 133.376-104.874667 238.336-238.208 238.336 0 0-100.48 2.944-194.56 2.944-88.234667 0-173.525333-2.944-173.525334-2.944a241.066667 241.066667 0 0 1-241.152-241.28S85.333333 597.333333 85.333333 503.168c0-88.277333 2.944-173.610667 2.944-173.610667A241.066667 241.066667 0 0 1 329.386667 88.32S420.608 85.333333 511.744 85.333333z m170.581333 773.888c108.8 0 176.469333-67.2 176.469334-176.554666 0 0 2.432-97.578667 2.432-173.098667 0-74.069333-2.432-168.234667-2.432-168.234667 0-108.885333-67.157333-176.554667-176.469334-176.554666 0 0-95.573333-2.432-170.581333-2.432-74.965333 0-167.637333 2.432-167.637333 2.432-108.8 0-179.370667 67.2-179.370667 176.554666 0 0-2.432 91.221333-2.432 163.328 0 76.970667 2.432 175.061333 2.432 175.061334 0 108.885333 70.101333 179.498667 179.370667 179.498666 0 0 88.234667 2.432 160.298666 2.432 76.970667 0 177.92-2.432 177.92-2.432zM298.666667 511.061333c0-118.186667 95.530667-214.229333 212.992-214.229333 117.504 0 213.034667 96.085333 213.034666 214.229333 0 118.186667-95.573333 214.272-213.034666 214.272S298.666667 629.248 298.666667 511.061333z m74.496 0c0 76.885333 62.08 139.349333 138.496 139.349334s138.496-62.464 138.496-139.349334c0-76.842667-62.08-139.306667-138.496-139.306666-76.373333 0-138.496 62.464-138.496 139.306666z m309.973333-221.44c0-28.842667 23.381333-51.882667 51.584-51.882666 28.16 0 51.584 23.04 51.584 51.882666 0 28.8-23.424 51.882667-51.626667 51.882667-28.586667 0-51.541333-23.04-51.541333-51.882667z" fill="#ffffff" p-id="3899"></path></svg>